<svg width="270" height="200" viewBox="0 0 270 200" fill="none" xmlns="http://www.w3.org/2000/svg">
<rect width="270" height="200" rx="10" fill="#192E3B"/>
<rect x="107.188" y="71.9375" width="58.125" height="58.125" rx="2.8125" stroke="#358BC0" stroke-width="1.875"/>
<mask id="path-3-inside-1_1117_521" fill="white">
<rect x="110.75" y="75.5" width="51" height="51" rx="1.5"/>
</mask>
<rect x="110.75" y="75.5" width="51" height="51" rx="1.5" fill="#358BC0" stroke="#358BC0" stroke-width="3.75" mask="url(#path-3-inside-1_1117_521)"/>
<rect x="166.438" y="49.4375" width="16.875" height="16.875" rx="2.8125" stroke="#358BC0" stroke-width="1.875"/>
<rect x="175.812" y="93.6875" width="16.875" height="16.875" rx="2.8125" stroke="#358BC0" stroke-width="1.875"/>
<rect x="179.562" y="97.4375" width="9.375" height="9.375" rx="0.9375" fill="#358BC0" stroke="#358BC0" stroke-width="1.875"/>
<rect x="170.188" y="53.1875" width="9.375" height="9.375" rx="0.9375" fill="#358BC0" stroke="#358BC0" stroke-width="1.875"/>
<rect x="101.938" y="48.6875" width="9.375" height="9.375" rx="0.9375" fill="#358BC0" stroke="#358BC0" stroke-width="1.875"/>
<rect x="84.6875" y="89.9375" width="9.375" height="9.375" rx="0.9375" fill="#358BC0" stroke="#358BC0" stroke-width="1.875"/>
<rect x="84.6875" y="136.062" width="9.375" height="9.375" rx="0.9375" fill="#358BC0" stroke="#358BC0" stroke-width="1.875"/>
<rect x="152.188" y="143.936" width="9.375" height="9.375" rx="0.9375" fill="#358BC0" stroke="#358BC0" stroke-width="1.875"/>
<rect x="148.438" y="139.811" width="16.875" height="16.875" rx="2.8125" stroke="#358BC0" stroke-width="1.875"/>
<rect x="98.1875" y="44.9375" width="16.875" height="16.875" rx="2.8125" stroke="#358BC0" stroke-width="1.875"/>
<rect x="80.9375" y="86.1875" width="16.875" height="16.875" rx="2.8125" stroke="#358BC0" stroke-width="1.875"/>
<rect x="80.9375" y="132.312" width="16.875" height="16.875" rx="2.8125" stroke="#358BC0" stroke-width="1.875"/>
<path d="M124.122 106.904H122.46L127.267 93.8134H128.903L133.71 106.904H132.048L128.136 95.8844H128.034L124.122 106.904ZM124.736 101.791H131.435V103.197H124.736V101.791ZM135.749 106.904V93.8134H140.173C141.2 93.8134 142.039 93.9988 142.691 94.3695C143.347 94.736 143.833 95.2324 144.148 95.8588C144.464 96.4853 144.621 97.1841 144.621 97.9554C144.621 98.7267 144.464 99.4277 144.148 100.058C143.837 100.689 143.356 101.192 142.704 101.567C142.052 101.938 141.217 102.123 140.198 102.123H137.028V100.717H140.147C140.85 100.717 141.415 100.595 141.841 100.352C142.267 100.11 142.576 99.7814 142.768 99.3681C142.964 98.9505 143.062 98.4796 143.062 97.9554C143.062 97.4313 142.964 96.9625 142.768 96.5492C142.576 96.1358 142.265 95.812 141.835 95.5776C141.404 95.339 140.833 95.2196 140.121 95.2196H137.335V106.904H135.749ZM148.76 93.8134V106.904H147.175V93.8134H148.76Z" fill="#192E3B"/>
<line x1="89.1875" y1="131.686" x2="89.1875" y2="114.737" stroke="#358BC0" stroke-width="1.875"/>
<line x1="137.188" y1="146.736" x2="137.188" y2="129.788" stroke="#358BC0" stroke-width="1.875"/>
<line x1="148.062" y1="72.9883" x2="148.062" y2="56.0397" stroke="#358BC0" stroke-width="1.875"/>
<line x1="131.562" y1="71.1094" x2="131.562" y2="54.1608" stroke="#358BC0" stroke-width="1.875"/>
<line x1="88.625" y1="115.68" x2="106.25" y2="115.68" stroke="#358BC0" stroke-width="1.875"/>
<line x1="147.875" y1="56.9844" x2="165.5" y2="56.9844" stroke="#358BC0" stroke-width="1.875"/>
<line x1="114.875" y1="53.2207" x2="132.5" y2="53.2207" stroke="#358BC0" stroke-width="1.875"/>
<line x1="136.25" y1="147.662" x2="148.625" y2="147.662" stroke="#358BC0" stroke-width="1.875"/>
<line x1="98.75" y1="94.6094" x2="108.125" y2="94.6094" stroke="#358BC0" stroke-width="1.875"/>
<line x1="165.5" y1="102.889" x2="174.875" y2="102.889" stroke="#358BC0" stroke-width="1.875"/>
</svg>
