<svg width="100" height="91" viewBox="0 0 100 91" fill="none" xmlns="http://www.w3.org/2000/svg">
<path d="M50 0C22.375 0 0 20.651 0 46.1475C0 66.5678 14.3125 83.8154 34.1875 89.93C36.6875 90.3338 37.625 88.9493 37.625 87.738C37.625 86.642 37.5625 83.0078 37.5625 79.143C25 81.2773 21.75 76.3165 20.75 73.7207C20.1875 72.3939 17.75 68.2983 15.625 67.2023C13.875 66.337 11.375 64.2027 15.5625 64.145C19.5 64.0874 22.3125 67.4907 23.25 68.8752C27.75 75.855 34.9375 73.8937 37.8125 72.6823C38.25 69.6827 39.5625 67.6638 41 66.5101C29.875 65.3564 18.25 61.3762 18.25 43.7248C18.25 38.7062 20.1875 34.553 23.375 31.3226C22.875 30.1689 21.125 25.4388 23.875 19.0935C23.875 19.0935 28.0625 17.8822 37.625 23.8237C41.625 22.7853 45.875 22.2662 50.125 22.2662C54.375 22.2662 58.625 22.7853 62.625 23.8237C72.1875 17.8245 76.375 19.0935 76.375 19.0935C79.125 25.4388 77.375 30.1689 76.875 31.3226C80.0625 34.553 82 38.6485 82 43.7248C82 61.4339 70.3125 65.3564 59.1875 66.5101C61 67.9522 62.5625 70.7211 62.5625 75.0474C62.5625 81.2196 62.5 86.1805 62.5 87.738C62.5 88.9493 63.4375 90.3914 65.9375 89.93C75.865 86.8395 84.4917 80.9524 90.6025 73.0978C96.7133 65.2433 100 55.8172 100 46.1475C100 20.651 77.625 0 50 0Z" fill="white"/>
</svg>
