<svg width="100" height="94" viewBox="0 0 100 94" fill="none" xmlns="http://www.w3.org/2000/svg">
<path d="M50 0C22.375 0 0 21.43 0 47.8884C0 69.0789 14.3125 86.9772 34.1875 93.3224C36.6875 93.7414 37.625 92.3048 37.625 91.0477C37.625 89.9104 37.5625 86.1392 37.5625 82.1285C25 84.3434 21.75 79.1954 20.75 76.5016C20.1875 75.1248 17.75 70.8748 15.625 69.7374C13.875 68.8395 11.375 66.6247 15.5625 66.5648C19.5 66.5049 22.3125 70.0367 23.25 71.4734C27.75 78.7165 34.9375 76.6812 37.8125 75.4242C38.25 72.3114 39.5625 70.2163 41 69.0191C29.875 67.8219 18.25 63.6915 18.25 45.3742C18.25 40.1664 20.1875 35.8564 23.375 32.5042C22.875 31.307 21.125 26.3985 23.875 19.8138C23.875 19.8138 28.0625 18.5567 37.625 24.7224C41.625 23.6449 45.875 23.1061 50.125 23.1061C54.375 23.1061 58.625 23.6449 62.625 24.7224C72.1875 18.4969 76.375 19.8138 76.375 19.8138C79.125 26.3985 77.375 31.307 76.875 32.5042C80.0625 35.8564 82 40.1065 82 45.3742C82 63.7514 70.3125 67.8219 59.1875 69.0191C61 70.5156 62.5625 73.3889 62.5625 77.8784C62.5625 84.2835 62.5 89.4315 62.5 91.0477C62.5 92.3048 63.4375 93.8013 65.9375 93.3224C75.865 90.1154 84.4917 84.0062 90.6025 75.8553C96.7133 67.7045 100 57.9228 100 47.8884C100 21.43 77.625 0 50 0Z" fill="black"/>
</svg>
