<svg width="100" height="93" viewBox="0 0 100 93" fill="none" xmlns="http://www.w3.org/2000/svg">
<path d="M0 6.85282C0 3.2014 3.2875 0.242188 7.34375 0.242188H92.6562C96.7125 0.242188 100 3.2014 100 6.85282V85.9266C100 89.578 96.7125 92.5372 92.6562 92.5372H7.34375C3.2875 92.5372 0 89.578 0 85.9266V6.85282ZM30.8937 77.5047V35.8277H15.8875V77.5047H30.8937ZM23.3938 30.1342C28.625 30.1342 31.8812 26.9385 31.8812 22.9352C31.7875 18.8454 28.6313 15.7362 23.4938 15.7362C18.3563 15.7362 15 18.8512 15 22.9352C15 26.9385 18.2563 30.1342 23.2937 30.1342H23.3938ZM54.0688 77.5047V54.229C54.0688 52.983 54.1687 51.737 54.5687 50.8487C55.65 48.3625 58.1188 45.784 62.2688 45.784C67.7 45.784 69.8687 49.6027 69.8687 55.2096V77.5047H84.875V53.6002C84.875 40.7943 77.475 34.8413 67.6 34.8413C59.6375 34.8413 56.0688 38.8792 54.0688 41.723V41.8672H53.9688L54.0688 41.723V35.8277H39.0687C39.2562 39.7387 39.0687 77.5047 39.0687 77.5047H54.0688Z" fill="white"/>
</svg>
