<svg width="100" height="100" viewBox="0 0 100 100" fill="none" xmlns="http://www.w3.org/2000/svg">
<circle cx="50" cy="50" r="50" fill="black"/>
<path d="M28.14 65.8C28.14 64.2533 28.62 63.48 29.58 63.48C30.1667 63.48 31.7667 64.8133 34.38 67.48C35.3933 68.44 36.62 69.3467 38.06 70.2C39.5 71 40.9133 71.4 42.3 71.4C44.06 71.4 45.66 69.56 47.1 65.88C48.5933 62.1467 50.6467 55.5333 53.26 46.04C55.8733 36.4933 57.98 30.4133 59.58 27.8C57.2333 28.1733 53.9267 28.8667 49.66 29.88C45.4467 30.8933 42.9133 31.4 42.06 31.4C40.0867 31.4 39.1 30.7333 39.1 29.4C39.1 27.5867 42.4067 25.7467 49.02 23.88C55.6867 22.0133 60.5667 21.08 63.66 21.08C64.62 21.08 65.4467 21.2933 66.14 21.72C66.8867 22.1467 67.26 22.7867 67.26 23.64C67.26 24.44 66.8867 25.9333 66.14 28.12C62.8333 37.7733 60.6733 44.3333 59.66 47.8C56.1933 60.44 53.5533 68.6267 51.74 72.36C49.9267 76.0933 47.2067 77.96 43.58 77.96C40.0067 77.96 36.54 76.4667 33.18 73.48C29.82 70.4933 28.14 67.9333 28.14 65.8Z" fill="white"/>
</svg>
